<?xml version="1.0" encoding="utf-8"?>
<!-- Generator: Adobe Illustrator 16.0.0, SVG Export Plug-In . SVG Version: 6.00 Build 0)  -->
<!DOCTYPE svg PUBLIC "-//W3C//DTD SVG 1.1//EN" "http://www.w3.org/Graphics/SVG/1.1/DTD/svg11.dtd">
<svg version="1.1" id="Layer_1" xmlns="http://www.w3.org/2000/svg" xmlns:xlink="http://www.w3.org/1999/xlink" x="0px" y="0px"
	 width="288px" height="71.25px" viewBox="0 0 288 71.25" enable-background="new 0 0 288 71.25" xml:space="preserve">
<g>
	<g>
		<path fill="#FFFFFF" d="M84.465,22.165v-4.146c0-0.552,0.276-0.829,0.829-0.829h22.907c0.582,0,0.874,0.277,0.874,0.829v4.146
			c0,0.582-0.292,0.873-0.874,0.873h-8.377v25.656c0,0.582-0.277,0.872-0.829,0.872h-4.712c-0.553,0-0.83-0.29-0.83-0.872V23.037
			h-8.159C84.741,23.037,84.465,22.747,84.465,22.165z"/>
		<path fill="#FFFFFF" d="M115.924,44.896c0.64,0.03,1.265-0.058,1.876-0.261s1.207-0.466,1.789-0.786
			c0.232-0.115,0.451-0.247,0.655-0.394c0.203-0.144,0.392-0.216,0.567-0.216c0.262,0,0.48,0.13,0.655,0.392l1.614,2.575
			c0.145,0.232,0.218,0.422,0.218,0.565c0,0.235-0.074,0.431-0.218,0.59c-0.146,0.161-0.305,0.313-0.48,0.458
			c-0.931,0.698-1.941,1.25-3.031,1.658c-1.092,0.408-2.263,0.611-3.514,0.611c-1.513,0-2.945-0.29-4.297-0.873
			c-1.353-0.58-2.531-1.373-3.536-2.379c-1.002-1.002-1.803-2.188-2.399-3.555c-0.597-1.367-0.895-2.822-0.895-4.364
			c0-1.511,0.291-2.945,0.873-4.298c0.582-1.352,1.367-2.545,2.356-3.578c0.989-1.032,2.137-1.847,3.447-2.444
			c1.31-0.594,2.706-0.894,4.189-0.894c1.396,0,2.72,0.263,3.971,0.786c1.25,0.524,2.349,1.236,3.294,2.138
			c0.945,0.902,1.688,1.956,2.226,3.163c0.537,1.208,0.807,2.494,0.807,3.862c0,1.134-0.095,1.956-0.284,2.464
			c-0.189,0.51-0.604,0.764-1.243,0.764h-13.57c0.058,0.641,0.247,1.207,0.567,1.701c0.319,0.497,0.712,0.918,1.178,1.266
			c0.465,0.35,0.982,0.611,1.548,0.786C114.855,44.811,115.401,44.896,115.924,44.896z M110.994,36.651h9.381
			c-0.059-1.093-0.531-2.028-1.418-2.806c-0.888-0.776-1.985-1.164-3.294-1.164c-0.524,0-1.047,0.1-1.571,0.301
			c-0.524,0.202-1.004,0.482-1.44,0.842c-0.437,0.36-0.8,0.783-1.091,1.272C111.27,35.586,111.081,36.104,110.994,36.651z"/>
		<path fill="#FFFFFF" d="M146.074,48.388c-0.059-0.29-0.103-0.53-0.13-0.721c-0.029-0.188-0.073-0.427-0.132-0.72
			c-0.262,0.38-0.552,0.757-0.873,1.135c-0.321,0.38-0.697,0.707-1.135,0.982c-0.435,0.276-0.945,0.501-1.526,0.676
			s-1.28,0.262-2.094,0.262h-0.087c-1.542,0-2.961-0.283-4.255-0.851c-1.294-0.567-2.407-1.354-3.338-2.356
			c-0.93-1.004-1.657-2.174-2.18-3.512c-0.524-1.338-0.786-2.793-0.786-4.364c0-1.571,0.254-3.032,0.764-4.385
			c0.509-1.352,1.229-2.522,2.159-3.512c0.931-0.988,2.044-1.768,3.338-2.335c1.294-0.566,2.727-0.851,4.299-0.851
			c1.541,0,2.741,0.306,3.601,0.917c0.856,0.61,1.62,1.337,2.29,2.181l0.437-1.658c0.115-0.493,0.246-0.822,0.393-0.981
			c0.145-0.16,0.421-0.24,0.829-0.24l2.444,0.087c0.32,0,0.61,0.108,0.87,0.326c0.262,0.218,0.395,0.502,0.395,0.851v19.155
			c0,0.35-0.133,0.62-0.395,0.808c-0.26,0.189-0.55,0.283-0.87,0.283h-2.794c-0.436,0-0.733-0.108-0.895-0.327
			C146.241,49.021,146.133,48.736,146.074,48.388z M135.209,38.962c0,0.815,0.125,1.572,0.371,2.271
			c0.248,0.697,0.604,1.309,1.069,1.832c0.465,0.523,1.017,0.932,1.659,1.223c0.639,0.289,1.353,0.436,2.138,0.436
			c1.628,0,2.916-0.547,3.86-1.637c0.945-1.091,1.419-2.45,1.419-4.078c0-0.787-0.116-1.535-0.35-2.248s-0.583-1.339-1.047-1.877
			c-0.465-0.537-1.017-0.96-1.659-1.264c-0.639-0.306-1.381-0.458-2.224-0.458c-0.786,0-1.505,0.153-2.16,0.458
			c-0.655,0.304-1.207,0.728-1.659,1.264c-0.451,0.538-0.8,1.157-1.047,1.855C135.333,37.436,135.209,38.178,135.209,38.962z"/>
		<path fill="#FFFFFF" d="M156.547,28.143h2.878c0.262,0,0.481,0.103,0.657,0.305c0.172,0.205,0.317,0.444,0.435,0.72
			c0.116,0.277,0.211,0.575,0.283,0.895c0.073,0.321,0.124,0.611,0.152,0.873c0.612-0.727,1.412-1.403,2.4-2.028
			c0.989-0.626,2.183-0.938,3.579-0.938c1.483,0,2.777,0.327,3.882,0.981c1.105,0.654,1.95,1.448,2.532,2.377
			c0.697-1.017,1.65-1.853,2.857-2.507c1.206-0.656,2.465-0.983,3.773-0.983c1.484,0,2.742,0.234,3.774,0.698
			c1.032,0.466,1.891,1.114,2.575,1.942c0.683,0.829,1.191,1.79,1.527,2.88c0.334,1.09,0.516,2.275,0.545,3.555v1.964v9.643
			c0,0.408-0.124,0.686-0.371,0.829c-0.248,0.146-0.56,0.218-0.938,0.218h-3.315c-0.468,0-0.815-0.065-1.049-0.196
			c-0.232-0.131-0.349-0.399-0.349-0.807V37.48c0-1.106-0.24-2.036-0.72-2.793c-0.48-0.756-1.244-1.135-2.291-1.135
			c-0.494,0-0.996,0.103-1.506,0.306c-0.509,0.204-0.975,0.48-1.396,0.829c-0.422,0.349-0.763,0.757-1.025,1.221
			c-0.262,0.466-0.392,0.977-0.392,1.527v11.083c0,0.408-0.118,0.686-0.35,0.829c-0.234,0.146-0.553,0.218-0.961,0.218h-3.578
			c-0.437,0-0.748-0.065-0.938-0.196c-0.188-0.131-0.283-0.399-0.283-0.807v-11.3c0-1.193-0.299-2.109-0.893-2.75
			c-0.598-0.64-1.421-0.96-2.466-0.96c-0.495,0-0.991,0.096-1.484,0.284c-0.495,0.19-0.938,0.458-1.331,0.808
			s-0.714,0.756-0.96,1.222c-0.247,0.466-0.371,0.96-0.371,1.482v11.301c0,0.611-0.363,0.916-1.091,0.916h-3.751
			c-0.815,0-1.223-0.318-1.223-0.96V29.495c0-0.407,0.131-0.733,0.393-0.981C156.023,28.266,156.285,28.143,156.547,28.143z"/>
		<path fill="#FFFFFF" d="M192.081,44.636c-0.234-0.262-0.408-0.524-0.524-0.786s-0.015-0.552,0.306-0.873l2.923-2.879
			c0.262-0.232,0.517-0.313,0.764-0.24c0.248,0.074,0.502,0.225,0.764,0.459c0.437,0.436,0.924,0.879,1.463,1.331
			c0.536,0.452,1.119,0.857,1.744,1.221c0.625,0.364,1.302,0.655,2.029,0.873c0.727,0.218,1.497,0.327,2.313,0.327
			c0.873,0,1.642-0.115,2.312-0.35c0.669-0.232,1.244-0.545,1.725-0.938c0.479-0.393,0.843-0.844,1.091-1.352
			c0.245-0.51,0.371-1.041,0.371-1.594c0-0.698-0.211-1.288-0.633-1.768c-0.424-0.479-0.938-0.887-1.55-1.221
			c-0.61-0.334-1.271-0.611-1.985-0.83c-0.712-0.218-1.359-0.399-1.94-0.545c-3.521-1.046-6.204-2.334-8.051-3.861
			c-1.849-1.527-2.771-3.526-2.771-6c0-1.337,0.284-2.56,0.852-3.666c0.565-1.105,1.367-2.057,2.398-2.858
			c1.034-0.8,2.276-1.418,3.73-1.854c1.455-0.436,3.055-0.655,4.8-0.655c1.921,0,3.759,0.452,5.521,1.353
			c1.759,0.902,3.294,2.008,4.602,3.316c0.524,0.553,0.509,1.121-0.043,1.702l-2.399,2.575c-0.291,0.262-0.567,0.342-0.829,0.24
			c-0.261-0.102-0.539-0.269-0.828-0.501c-0.35-0.291-0.749-0.611-1.2-0.96c-0.451-0.35-0.945-0.676-1.484-0.982
			c-0.538-0.305-1.106-0.559-1.702-0.763c-0.597-0.203-1.214-0.305-1.854-0.305c-0.552,0-1.128,0.044-1.724,0.131
			c-0.596,0.087-1.134,0.254-1.614,0.502c-0.479,0.247-0.879,0.597-1.2,1.047c-0.32,0.452-0.479,1.056-0.479,1.811
			c0,0.553,0.152,1.033,0.458,1.44c0.306,0.408,0.742,0.764,1.31,1.068c0.565,0.306,1.235,0.59,2.006,0.851
			c0.771,0.262,1.622,0.524,2.554,0.786c1.482,0.437,2.879,0.924,4.188,1.462c1.31,0.538,2.45,1.2,3.425,1.986
			c0.975,0.784,1.753,1.716,2.335,2.792c0.581,1.076,0.872,2.371,0.872,3.883c0,1.513-0.335,2.887-1.003,4.123
			c-0.67,1.235-1.564,2.29-2.684,3.163c-1.121,0.872-2.415,1.542-3.883,2.007c-1.471,0.465-2.989,0.698-4.561,0.698
			c-2.27,0-4.45-0.493-6.545-1.483C195.353,47.53,193.564,46.236,192.081,44.636z"/>
		<path fill="#FFFFFF" d="M219.22,48.605V18.151c0-0.641,0.305-0.96,0.915-0.96h4.058c0.641,0,0.961,0.32,0.961,0.96v30.455
			c0,0.642-0.32,0.96-0.961,0.96h-4.058C219.524,49.565,219.22,49.247,219.22,48.605z"/>
		<path fill="#FFFFFF" d="M228.949,21.772c0-0.931,0.328-1.724,0.981-2.378c0.656-0.654,1.447-0.981,2.379-0.981
			c0.959,0,1.76,0.327,2.399,0.981c0.64,0.655,0.96,1.447,0.96,2.378s-0.32,1.717-0.96,2.355c-0.64,0.641-1.44,0.961-2.399,0.961
			c-0.932,0-1.723-0.32-2.379-0.961C229.277,23.489,228.949,22.703,228.949,21.772z M235.407,29.189v19.374
			c0,0.67-0.363,1.003-1.09,1.003h-3.797c-0.669,0-1.003-0.333-1.003-1.003V29.189c0-0.318,0.087-0.574,0.261-0.764
			c0.175-0.188,0.422-0.283,0.742-0.283h3.797c0.26,0,0.507,0.095,0.74,0.283C235.291,28.615,235.407,28.871,235.407,29.189z"/>
		<path fill="#FFFFFF" d="M250.513,44.636c0.872-0.028,1.629-0.16,2.27-0.393c0.64-0.233,1.308-0.509,2.007-0.829
			c0.291-0.146,0.495-0.217,0.61-0.217c0.204,0,0.421,0.158,0.655,0.479l1.876,2.691c0.116,0.23,0.175,0.391,0.175,0.475
			c0,0.26-0.089,0.463-0.262,0.607c-0.175,0.144-0.335,0.272-0.48,0.389c-0.96,0.635-2.008,1.163-3.142,1.58
			c-1.135,0.419-2.327,0.628-3.578,0.628c-1.541,0-2.989-0.29-4.341-0.873c-1.353-0.58-2.538-1.375-3.556-2.378
			c-1.02-1.004-1.819-2.182-2.4-3.534c-0.583-1.352-0.873-2.8-0.873-4.341s0.29-2.996,0.873-4.363
			c0.581-1.367,1.381-2.559,2.4-3.578c1.018-1.018,2.203-1.818,3.556-2.399c1.352-0.583,2.8-0.874,4.341-0.874
			c1.192,0,2.313,0.19,3.36,0.568c1.046,0.379,2.094,0.901,3.142,1.57h-0.044c0.232,0.146,0.421,0.306,0.567,0.48
			c0.144,0.175,0.218,0.379,0.218,0.611c0,0.058-0.007,0.138-0.022,0.24c-0.015,0.103-0.052,0.182-0.107,0.24l-1.702,2.923
			c-0.06,0.117-0.153,0.218-0.284,0.306c-0.13,0.087-0.269,0.132-0.415,0.132c-0.115,0-0.349-0.103-0.698-0.307
			c-0.494-0.407-1.105-0.734-1.832-0.981c-0.728-0.248-1.44-0.372-2.138-0.372c-0.814,0-1.57,0.162-2.269,0.482
			s-1.304,0.753-1.811,1.293c-0.51,0.539-0.91,1.167-1.2,1.883c-0.291,0.715-0.437,1.466-0.437,2.255
			c0,1.664,0.53,3.016,1.593,4.052C247.625,44.117,248.942,44.636,250.513,44.636z"/>
		<path fill="#FFFFFF" d="M271.133,44.896c0.64,0.03,1.266-0.058,1.876-0.261c0.611-0.203,1.208-0.466,1.789-0.786
			c0.231-0.115,0.451-0.247,0.655-0.394c0.204-0.144,0.393-0.216,0.567-0.216c0.262,0,0.479,0.13,0.654,0.392l1.615,2.575
			c0.144,0.232,0.217,0.422,0.217,0.565c0,0.235-0.073,0.431-0.217,0.59c-0.146,0.161-0.306,0.313-0.481,0.458
			c-0.931,0.698-1.941,1.25-3.033,1.658c-1.09,0.408-2.261,0.611-3.512,0.611c-1.513,0-2.944-0.29-4.298-0.873
			c-1.353-0.58-2.53-1.373-3.534-2.379c-1.003-1.002-1.803-2.188-2.398-3.555c-0.598-1.367-0.896-2.822-0.896-4.364
			c0-1.511,0.292-2.945,0.873-4.298c0.582-1.352,1.367-2.545,2.356-3.578s2.138-1.847,3.446-2.444
			c1.31-0.594,2.706-0.894,4.188-0.894c1.397,0,2.72,0.263,3.973,0.786c1.248,0.524,2.349,1.236,3.293,2.138
			c0.945,0.902,1.686,1.956,2.226,3.163c0.537,1.208,0.808,2.494,0.808,3.862c0,1.134-0.095,1.956-0.284,2.464
			c-0.189,0.51-0.603,0.764-1.243,0.764h-13.57c0.058,0.641,0.248,1.207,0.567,1.701c0.32,0.497,0.712,0.918,1.178,1.266
			c0.466,0.35,0.982,0.611,1.55,0.786S270.609,44.896,271.133,44.896z M266.202,36.651h9.382c-0.06-1.093-0.531-2.028-1.419-2.806
			c-0.888-0.776-1.984-1.164-3.294-1.164c-0.523,0-1.047,0.1-1.57,0.301c-0.523,0.202-1.005,0.482-1.439,0.842
			c-0.437,0.36-0.802,0.783-1.092,1.272C266.479,35.586,266.291,36.104,266.202,36.651z"/>
	</g>
	<g>
		<g>
			<g>
				<path fill="#EFEFEF" d="M22.713,66.914c-2.338-0.046-4.454-0.44-6.35-1.179c-1.896-0.739-3.519-1.819-4.865-3.238
					c-1.348-1.418-2.391-3.184-3.13-5.294c-0.74-2.112-1.109-4.561-1.109-7.352v-4.33c0-1.835-0.375-3.32-1.126-4.451
					c-0.751-1.133-1.842-1.701-3.273-1.701H1.75v-6.653h1.109c1.431,0,2.522-0.566,3.273-1.7c0.751-1.131,1.126-2.616,1.126-4.453
					v-4.257c0-2.79,0.37-5.241,1.109-7.352c0.739-2.11,1.782-3.875,3.13-5.294c1.347-1.418,2.969-2.498,4.865-3.237
					c1.896-0.738,4.012-1.132,6.35-1.18v6.725c-2.624,0.12-4.585,0.948-5.885,2.486c-1.3,1.539-1.95,3.715-1.95,6.529v4.758
					c0,1.813-0.155,3.339-0.464,4.579c-0.311,1.241-0.757,2.254-1.342,3.041c-0.585,0.787-1.312,1.395-2.182,1.824
					c-0.871,0.429-1.866,0.728-2.987,0.895c1.121,0.191,2.117,0.494,2.987,0.912s1.597,1.019,2.182,1.806
					c0.584,0.787,1.031,1.801,1.342,3.042c0.309,1.239,0.464,2.767,0.464,4.578v4.759c0,2.813,0.65,4.991,1.95,6.527
					c1.299,1.538,3.261,2.367,5.885,2.485V66.914z"/>
			</g>
			<g>
				<path fill="#EFEFEF" d="M60.601,5.242c2.338,0.047,4.454,0.441,6.35,1.18c1.896,0.739,3.519,1.819,4.865,3.237
					c1.348,1.419,2.391,3.184,3.13,5.294s1.109,4.561,1.109,7.352v4.328c0,1.836,0.375,3.32,1.126,4.453
					c0.752,1.133,1.843,1.7,3.274,1.7h1.108v6.654h-1.108c-1.431,0-2.522,0.565-3.274,1.699c-0.751,1.131-1.126,2.615-1.126,4.453
					v4.258c0,2.791-0.37,5.239-1.109,7.352c-0.739,2.11-1.783,3.876-3.13,5.294c-1.347,1.419-2.969,2.497-4.865,3.238
					c-1.896,0.738-4.012,1.131-6.35,1.179v-6.726c2.624-0.118,4.585-0.947,5.884-2.485c1.301-1.539,1.95-3.714,1.95-6.529v-4.757
					c0-1.813,0.155-3.34,0.465-4.579c0.31-1.24,0.757-2.254,1.342-3.041c0.584-0.787,1.312-1.395,2.182-1.824
					c0.871-0.429,1.866-0.728,2.987-0.895c-1.121-0.191-2.116-0.494-2.987-0.912c-0.87-0.417-1.597-1.019-2.182-1.807
					c-0.584-0.786-1.032-1.8-1.342-3.04c-0.31-1.24-0.465-2.767-0.465-4.579v-4.758c0-2.814-0.649-4.991-1.95-6.529
					c-1.299-1.538-3.261-2.366-5.884-2.486V5.242z"/>
			</g>
		</g>
	</g>
	<path fill="#8899B7" d="M54.138,24.162L40.966,37.333l0.599-3.42l12.541-12.541c-2.816-2.817-6.311-4.538-9.958-5.172l-0.476,2.718
		c-5.624-0.823-11.55,0.917-15.877,5.245c-7.274,7.275-7.274,19.069,0,26.342c7.274,7.273,19.067,7.273,26.342,0
		C61.412,43.23,61.412,31.437,54.138,24.162z"/>
	<g>
		<path fill="#FFFFFF" d="M244.274,20.36l-0.477,0.297c-0.413-0.548-0.975-0.822-1.688-0.822c-0.569,0-1.043,0.184-1.419,0.55
			c-0.377,0.366-0.565,0.812-0.565,1.335c0,0.341,0.087,0.662,0.261,0.962c0.173,0.301,0.41,0.534,0.713,0.7
			c0.302,0.167,0.641,0.249,1.016,0.249c0.687,0,1.247-0.273,1.684-0.82l0.477,0.313c-0.224,0.338-0.523,0.599-0.901,0.784
			c-0.376,0.186-0.806,0.277-1.287,0.277c-0.74,0-1.352-0.234-1.84-0.704c-0.486-0.471-0.73-1.043-0.73-1.716
			c0-0.453,0.114-0.874,0.342-1.262s0.54-0.691,0.938-0.91c0.398-0.217,0.845-0.327,1.338-0.327c0.31,0,0.607,0.047,0.896,0.142
			c0.287,0.095,0.532,0.218,0.732,0.37C243.963,19.931,244.134,20.125,244.274,20.36z"/>
		<path fill="#FFFFFF" d="M249.431,19.388v4.678h-0.593v-0.805c-0.252,0.307-0.535,0.538-0.85,0.691
			c-0.313,0.156-0.656,0.232-1.029,0.232c-0.663,0-1.227-0.24-1.696-0.72c-0.468-0.479-0.703-1.063-0.703-1.751
			c0-0.674,0.237-1.25,0.71-1.728c0.473-0.479,1.041-0.719,1.707-0.719c0.384,0,0.731,0.083,1.041,0.246
			c0.313,0.164,0.584,0.408,0.82,0.735v-0.859H249.431z M247.025,19.848c-0.335,0-0.644,0.083-0.928,0.247
			c-0.283,0.165-0.509,0.396-0.676,0.694c-0.169,0.297-0.253,0.612-0.253,0.944c0,0.33,0.087,0.644,0.255,0.944
			c0.169,0.301,0.396,0.534,0.68,0.703c0.287,0.167,0.592,0.25,0.918,0.25c0.33,0,0.641-0.082,0.936-0.249
			c0.295-0.166,0.522-0.391,0.682-0.674c0.158-0.284,0.238-0.603,0.238-0.958c0-0.541-0.179-0.993-0.536-1.358
			C247.985,20.03,247.547,19.848,247.025,19.848z"/>
		<path fill="#FFFFFF" d="M250.125,19.388h0.602v0.838c0.241-0.321,0.508-0.561,0.801-0.719c0.292-0.16,0.608-0.24,0.952-0.24
			c0.352,0,0.661,0.089,0.933,0.268c0.27,0.178,0.47,0.417,0.6,0.718c0.129,0.3,0.193,0.77,0.193,1.405v2.408h-0.603v-2.232
			c0-0.539-0.023-0.899-0.066-1.08c-0.07-0.309-0.202-0.542-0.4-0.698c-0.199-0.156-0.456-0.234-0.775-0.234
			c-0.364,0-0.69,0.12-0.978,0.361c-0.289,0.241-0.478,0.539-0.57,0.894c-0.057,0.232-0.086,0.657-0.086,1.273v1.716h-0.602V19.388z
			"/>
		<path fill="#FFFFFF" d="M259.494,19.388v4.678h-0.593v-0.805c-0.253,0.307-0.535,0.538-0.851,0.691
			c-0.313,0.156-0.656,0.232-1.029,0.232c-0.661,0-1.228-0.24-1.695-0.72c-0.469-0.479-0.702-1.063-0.702-1.751
			c0-0.674,0.235-1.25,0.709-1.728c0.473-0.479,1.042-0.719,1.707-0.719c0.385,0,0.731,0.083,1.041,0.246
			c0.313,0.164,0.586,0.408,0.82,0.735v-0.859H259.494z M257.09,19.848c-0.336,0-0.646,0.083-0.929,0.247
			c-0.283,0.165-0.509,0.396-0.677,0.694c-0.166,0.297-0.25,0.612-0.25,0.944c0,0.33,0.084,0.644,0.253,0.944
			c0.169,0.301,0.396,0.534,0.681,0.703c0.284,0.167,0.591,0.25,0.916,0.25c0.329,0,0.642-0.082,0.937-0.249
			c0.295-0.166,0.521-0.391,0.681-0.674c0.16-0.284,0.239-0.603,0.239-0.958c0-0.541-0.18-0.993-0.535-1.358
			C258.049,20.03,257.61,19.848,257.09,19.848z"/>
		<path fill="#FFFFFF" d="M264.857,17.583v6.483h-0.594v-0.805c-0.252,0.307-0.536,0.538-0.849,0.691
			c-0.313,0.156-0.657,0.232-1.03,0.232c-0.661,0-1.227-0.24-1.695-0.72c-0.469-0.479-0.703-1.063-0.703-1.751
			c0-0.674,0.236-1.25,0.709-1.728c0.473-0.479,1.043-0.719,1.707-0.719c0.384,0,0.733,0.083,1.042,0.246
			c0.311,0.164,0.585,0.408,0.819,0.735v-2.665H264.857z M262.451,19.848c-0.335,0-0.644,0.083-0.927,0.247
			c-0.284,0.165-0.509,0.396-0.676,0.694c-0.168,0.297-0.252,0.612-0.252,0.944c0,0.33,0.085,0.644,0.253,0.944
			c0.169,0.301,0.396,0.534,0.682,0.703c0.284,0.167,0.589,0.25,0.916,0.25c0.329,0,0.641-0.082,0.936-0.249
			c0.296-0.166,0.522-0.391,0.682-0.674c0.157-0.284,0.239-0.603,0.239-0.958c0-0.541-0.179-0.993-0.535-1.358
			C263.411,20.03,262.973,19.848,262.451,19.848z"/>
		<path fill="#FFFFFF" d="M270.221,19.388v4.678h-0.595v-0.805c-0.253,0.307-0.534,0.538-0.849,0.691
			c-0.314,0.156-0.657,0.232-1.029,0.232c-0.662,0-1.229-0.24-1.696-0.72c-0.469-0.479-0.702-1.063-0.702-1.751
			c0-0.674,0.236-1.25,0.71-1.728c0.473-0.479,1.04-0.719,1.705-0.719c0.384,0,0.731,0.083,1.043,0.246
			c0.311,0.164,0.583,0.408,0.818,0.735v-0.859H270.221z M267.813,19.848c-0.333,0-0.645,0.083-0.927,0.247
			c-0.283,0.165-0.51,0.396-0.677,0.694c-0.167,0.297-0.251,0.612-0.251,0.944c0,0.33,0.085,0.644,0.254,0.944
			c0.168,0.301,0.396,0.534,0.68,0.703c0.286,0.167,0.591,0.25,0.918,0.25c0.33,0,0.641-0.082,0.937-0.249
			c0.293-0.166,0.521-0.391,0.68-0.674c0.159-0.284,0.239-0.603,0.239-0.958c0-0.541-0.18-0.993-0.535-1.358
			C268.774,20.03,268.336,19.848,267.813,19.848z"/>
	</g>
	<linearGradient id="SVGID_1_" gradientUnits="userSpaceOnUse" x1="277.4424" y1="15.3789" x2="277.4424" y2="26.6136">
		<stop  offset="0" style="stop-color:#FABDA7"/>
		<stop  offset="0.0229" style="stop-color:#F9AE95"/>
		<stop  offset="0.0739" style="stop-color:#F59276"/>
		<stop  offset="0.1312" style="stop-color:#F27A5E"/>
		<stop  offset="0.1945" style="stop-color:#F0644A"/>
		<stop  offset="0.2661" style="stop-color:#EE503B"/>
		<stop  offset="0.3496" style="stop-color:#ED3F31"/>
		<stop  offset="0.4529" style="stop-color:#EC302B"/>
		<stop  offset="0.5978" style="stop-color:#EB2528"/>
		<stop  offset="1" style="stop-color:#EB2227"/>
	</linearGradient>
	<path fill="url(#SVGID_1_)" d="M277.441,14.732c0,0,0.46,0.883,0.744,1.46c0.285,0.574,0.298,0.608,0.771,0.387
		c0.265-0.159,0.561-0.318,0.561-0.318l-0.464,2.573c-0.08,0.416-0.062,0.59,0.081,0.629c0.176,0.051,0.276-0.09,0.425-0.284
		c0.236-0.271,1.049-1.214,1.049-1.214s0-0.02,0.115,0.417c0.126,0.485,0.077,0.499,0.826,0.332
		c0.286-0.054,1.006-0.221,1.006-0.221l-0.402,1.477c-0.174,0.547-0.014,0.542,0.208,0.638s0.408,0.194,0.408,0.194
		s-1.947,1.615-2.35,1.977c-0.4,0.36-0.368,0.312-0.271,0.741c0.076,0.278,0.161,0.57,0.161,0.57l-2.371-0.292
		c-0.286-0.035-0.404,0.049-0.389,0.243c0.019,0.264,0.115,2.73,0.115,2.73h-0.445c0,0,0.098-2.466,0.117-2.73
		c0.015-0.193-0.103-0.277-0.388-0.243l-2.372,0.292c0,0,0.083-0.292,0.161-0.57c0.098-0.429,0.13-0.38-0.272-0.741
		c-0.401-0.361-2.349-1.977-2.349-1.977s0.186-0.098,0.408-0.194s0.382-0.091,0.207-0.638l-0.401-1.477c0,0,0.721,0.167,1.005,0.221
		c0.749,0.167,0.701,0.153,0.827-0.332c0.115-0.437,0.115-0.417,0.115-0.417s0.813,0.943,1.049,1.214
		c0.148,0.194,0.249,0.334,0.425,0.284c0.143-0.04,0.161-0.214,0.08-0.629l-0.464-2.573c0,0,0.297,0.159,0.562,0.318
		c0.472,0.221,0.486,0.187,0.771-0.387C276.982,15.615,277.441,14.732,277.441,14.732z"/>
</g>
</svg>
